<?xml version="1.0" encoding="UTF-8"?>
<svg id="Layer_1" xmlns="http://www.w3.org/2000/svg" version="1.1" viewBox="0 0 1800 725.6">
  <!-- Generator: Adobe Illustrator 29.0.1, SVG Export Plug-In . SVG Version: 2.1.0 Build 192)  -->
  <defs>
    <style>
      .st0 {
        fill: #00a9e4;
      }
    </style>
  </defs>
  <path class="st0" d="M1800,370.9v42c-3.9,12.3-7.7,25.9-19.7,32.8-6.2,3.6-38.8,12.5-45.8,12.2-50.7-2.2-83.9-125-44.5-155.4,6.2-4.8,40.6-14.8,48.4-14.7,26.7.5,48.7,39.1,55.8,61.3l5.7,21.8h0ZM1758,447.9c14.2-3,24.2-5.6,31.5-19,18.9-34.9-1-109.8-35.2-130.8-12.6-7.8-21.6-5.2-34.8-1.2-1.4.4-1.8-.6-1.5,2,1.3,0,2.6.2,3.7.8,39.5,21.4,59.1,92.9,44.1,133.5-2,5.3-5.6,9.6-7.8,14.7h0ZM1712,439.9l13.6-131.6c-22.2-18.2-41.5-.3-46.3,23.4-6.3,31.3,3.1,71.8,21.9,97.5.8,1.1,9.2,12.5,10.8,10.7h0ZM1733.7,314.3c-.5-.5-3.5-2.5-3.6-2.4l-14.1,130.5c.7,6.6,15.7,10.9,21.6,10.5,26-1.5,29.8-42,28.5-61.6-1.6-23.6-15.1-60.6-32.4-77.1Z"/>
  <path class="st0" d="M0,216.9v-12c5,14.3,16,25,24,37.5l2.4,1.4,70.7-52.4c0-1.6-16.7-24.3-19.1-27-24.4-28.1-67.8-17.6-78,17.5v-13c15.9-26.9,51.6-33.8,75.9-13.4,7.6,6.4,47.4,61,51.6,70.4,22.8,51.3-41.7,94.3-81,55L0,216.9ZM29.1,247.1c-1.1,1.9,5.5,10,7,12.2,9,12.8,17,25.4,32.9,30.1,36.4,10.8,68.4-23.3,55-59-4.5-11.9-15.6-22-22-33l-2.4-1.4-70.5,51.1h0Z"/>
  <path class="st0" d="M1800,510.9v5c-17-12-42-10.2-56.5,5-2.8,2.9-22.5,31.5-22.5,33.5l70.6,47.5,8.5-10.9v8c-9.6,12-17,27.1-26.6,38.9-37.8,46.8-110.3-1.5-77.2-56.2,8.9-14.7,37.7-59.6,49.3-68.7,15.5-12.1,38.3-12.9,54.5-2h0ZM1788.9,605l-70.4-47c-12.6,18.5-29.8,34.7-25.2,59.2,5.2,28.1,36.2,42.6,61.7,30.2,9.7-4.7,14.4-12.2,20.4-20.6,1.8-2.4,14.3-20.8,13.5-21.8h0Z"/>
  <path class="st0" d="M1800,546.9v8l-5,10.5-1.5.5c-5.2,0,.7-7.6,1.2-10.8,1.1-6.6-.2-12-4.3-17.2-1.4-1.8-9.1-6.6-3.8-8,5.8-1.6,11.9,12.8,13.4,17h0Z"/>
  <path class="st0" d="M834.8,288.2c29.2-2.9,52.2,38.2,59.7,61.8,8,25.3,12.9,75.7-11.1,93.8-6,4.5-39.2,14.1-46.8,14.2-26,.4-47.7-35.4-55.3-56.8-9.7-27.6-17.4-89.4,16.5-103,7.3-3,29.5-9.2,37-10h0ZM858,447.9c15.6-3,26.5-7,33.2-22.3,15.3-35.5-2.1-100-32.2-124.2-14-11.2-23.5-9.4-39.5-4.5-1.4.4-1.8-.6-1.5,2,1.3,0,2.6.2,3.7.8,39.3,21.4,59.2,93.1,44.1,133.5-2,5.3-5.5,9.6-7.8,14.7h0ZM812,439.9l13.6-131.6c-19.4-16.3-38.5-3.9-44.9,17.8-9.4,31.6,1.2,76.7,20.5,103.1.8,1.1,9.2,12.5,10.8,10.7h0ZM830,311.9l-14.1,130.5c0,3.5,4.8,6,7.7,7.3,23.9,11.4,37.4-9.7,41.1-30.6,6.2-35.4-7.4-83.1-34.7-107.2Z"/>
  <path class="st0" d="M1609.7,502.3c42.1,42.5,25.6,117.3-31.4,136.4-62.4,20.9-121.7-32.5-107.7-96.7,13.7-63.1,93.8-85.4,139.2-39.6h0ZM1572,635.9c25.9-8.2,47-27.9,53.9-54.6,14.8-57-32.9-107.5-90.2-97.2l-1.7,1.3,38,150.5h0ZM1530,485.9c-28,6.6-50.5,31.8-55.7,59.8-10.2,55.2,38,102.3,92.7,91.2l-37-151h0Z"/>
  <path class="st0" d="M642.8,478.2c65.6-6.3,112.5,64.3,80.4,122.4-28,50.5-99.2,57.5-136.1,12.8-42-50.9-9.6-128.9,55.8-135.2h0ZM641.8,483.2c-1.6.2-7.4.7-7.7,2.2l37.8,149.1c2.4,1.8,16.7-5.5,19.8-7.4,69.9-41.7,33.9-152.9-49.9-143.9h0ZM630,485.9c-28,6.5-50.5,31.9-55.7,59.8-10.2,55.1,38,102.4,92.7,91.2l-37-151h0Z"/>
  <path class="st0" d="M1274.8,560.2c51.7-2.4,93.2,45.1,84.9,95.9-10.2,63-86.4,91.5-135.2,49.8-57.3-48.9-24.7-142.2,50.3-145.7h0ZM1200,635.4c-.4,5,.3,10.5,0,15.5l155-21.5c-10.3-53.8-70.2-81.9-117.9-52.9-19.9,12.1-34.9,35.6-37.1,58.9h0ZM1356,634.9l-154.8,22.5c11.2,55.9,76.2,82.5,123.2,48.4,15-10.9,31.7-36.4,31.7-55.3v-15.5Z"/>
  <path class="st0" d="M374.8,560.2c51.9-2,93.2,44.7,84.9,95.9-11.3,69.8-100.4,93.9-145.7,39.2-43.4-52.5-6.9-132.5,60.8-135.2h0ZM300,635.4c-.5,5,.3,10.5,0,15.5l155-21.5c-9.7-49.8-61.3-78.2-108.7-57.7-24.9,10.8-43.9,36.5-46.3,63.7h0ZM456,634.9l-155,21.5c11.2,61,86.2,86.1,131.5,42.5,10.7-10.2,23.5-33.7,23.5-48.5v-15.5h0Z"/>
  <path class="st0" d="M935.8,144.2c27.5-3.3,39,8.6,54,28.4,9.9,13,36.7,46.9,40.3,60.7,13.3,50.6-49.1,84.5-83.7,47.7-9.4-10-44.2-57.8-48.7-69.3-11.2-29,6.3-63.6,38-67.4h0ZM996.9,192.8c.7-1.2-.3-2.4-.8-3.4-2.9-5.9-19.5-27.4-24.6-31.4-23.6-18.6-58.3-9.3-69.2,18.7-11.2,28.6,7.6,46.1,23.4,67.2l71.3-51.1h0ZM929.1,247.1c-1.1,1.9,5.5,10,7,12.2,8.1,11.6,16.5,24.5,30.5,29.5,32,11.2,63.7-13.4,60.3-47.3-1.7-17.1-16.2-30.2-25-44l-2.4-1.4-70.5,51.1h0Z"/>
  <path class="st0" d="M303.8,107.2c35.4-3.3,61.4,29.7,51.7,63.7-3.4,11.8-34.8,61.8-43.5,72.5-37.8,46.2-111.5.5-80.8-56.8,8.5-15.9,26.9-46.5,37.8-60.2,8.5-10.6,21.1-18,34.8-19.2h0ZM340.6,125.3c-15-15.4-39-17.5-57-6.2-13.9,8.7-19.7,26.9-29.6,39.3l75.3,47.4c18.5-23.2,36.6-54.6,11.3-80.6h0ZM251,162.9c-8,17.2-23,30-22.6,50.3.5,32.8,35.5,54.3,65,39.6,16.8-8.4,23.7-27.5,33.6-42.3l-76-47.6h0Z"/>
  <path class="st0" d="M1203.8,107.2c35.3-3.3,61.5,30.1,51.9,63.9-3,10.7-35.6,62.3-43.7,72.3-37.8,46.1-111.5.5-80.8-56.8,8.5-15.9,26.9-46.5,37.8-60.2,8.5-10.6,21.1-18,34.8-19.2h0ZM1240.7,125.3c-15-15.5-38.9-17.6-57-6.2-9.6,6.1-18.3,21-24.1,30.9-1.2,2-5.1,7.4-4.5,9.3l74.3,46.6c18.5-23.2,36.6-54.5,11.3-80.6h0ZM1151,162.9c-8.1,17.3-23,29.8-22.6,50.3.5,32.9,35.4,54.3,65,39.6,16.8-8.4,23.7-27.3,33.6-42.3l-75.9-47.6h0Z"/>
  <path class="st0" d="M1089.8,323.2c52.5-6.3,78.6,55.2,38.1,88.1-11.8,9.6-56,41.7-68.4,45.6-46.1,14.7-84.3-38-55.5-76.5,8.1-10.9,53.5-41.9,67.1-49.9,5.7-3.4,12.1-6.5,18.7-7.3h0ZM1048.1,352l50.4,73.9c14.8-11.1,33.6-18.8,40.9-37,14.1-35.4-18.2-70.7-54.7-59.7-13.2,4-24.5,16.3-36.7,22.9h0ZM1042.6,356c-11.5,10.2-28.7,16.8-36.8,30.3-21.2,35.5,10.9,77.6,50.6,66.6,13.3-3.7,23.9-15.6,35.9-22.1l1.7-2.3-51.4-72.5h0Z"/>
  <path class="st0" d="M233.6,406.6c-10.1,10.4-49.1,36.8-62.7,44.8-49.1,28.7-98.2-27.2-67.4-70.4,7.7-10.8,54.1-42.5,67.5-50.5,52.6-31.3,102.2,35.4,62.6,76.1h0ZM148.1,352l50.4,73.9c11.5-9.2,28.8-16.6,36.9-29.1,23-35.7-10-79.6-50.6-67.6-13.5,4-24.3,16.3-36.6,22.9h0ZM142.6,356c-11.5,10.2-28.7,16.8-36.8,30.3-21.2,35.4,11,77.8,50.6,66.6,13.3-3.8,23.9-15.5,35.9-22.1l1.7-2.3-51.4-72.5h0Z"/>
  <path class="st0" d="M872.8,503.2c34.7-1.2,58.4,33.8,45.9,66-5,12.9-35.2,55.9-44.9,68.1-38.2,47.7-111.2-.4-76.8-56.8,9.1-14.9,35.2-56.1,47-66,8.1-6.8,18.1-10.9,28.8-11.2h0ZM821,554.8l70.5,47c7.2-11.3,19.8-24.4,23.8-37.1,11.3-36.3-24.4-68.5-59.5-52.5-11.3,5.2-17.3,15.1-24,25-1.6,2.4-11.5,16.5-10.7,17.6h0ZM889,605l-70.5-47c-14.7,21.1-33.4,39-23,66.9,8.8,23.5,37.1,33.3,59.5,22.5,9.7-4.7,14.4-12.2,20.4-20.6,1.8-2.5,14.3-20.7,13.5-21.8h0Z"/>
  <path class="st0" d="M1412.8,63.2c19.5-2.3,36.9,3.8,44.7,22.7,22.9,55.2-67.8,140.2-108.5,94.5-34-38.1,20.3-112,63.8-117.2ZM1418.8,67.2c-41.7,1.9-96.4,70.5-68.2,107.6,36.2,47.7,127.6-39.4,101.6-89.6-6.2-12.1-20-18.7-33.3-18.1h0Z"/>
  <path class="st0" d="M512.8,63.2c16.7-2,32.3,1.9,41.6,16.8,33.5,53.7-63.1,147.9-105.4,100.4-34-38.1,20.5-112,63.8-117.2ZM518.8,67.2c-44.8,2.4-102.7,80.2-62.8,113.2,41.4,34.2,119.3-47.9,96.5-94.5-6.1-12.5-20.1-19.5-33.7-18.7Z"/>
  <path class="st0" d="M663.8,274.2c10.4-1.2,25.8-.3,32.8,8.7,2.4,3.1,7.1,17.6,7.4,21.6,2.4,29.9-68.8,48.2-79.7,22.7-1.4-3.3-4.8-14.4-5.1-17.9-2.1-20.6,27.8-33.2,44.7-35.1h0ZM692.8,298.7c6.8-11.4-3.8-18.8-14.3-19.8-16.7-1.7-34.9,3.2-47.5,14.5l61.8,5.3h0ZM688,303.9l-61.3-6.1c-4.9,8-4.1,15.1,4.8,19.1,17,7.6,43.8.1,56.5-13ZM627,320.9c6.1,20.6,38.2,14.1,52.7,7.2,9.3-4.4,24-15.6,17.8-27.2-15.5,20.6-46.3,28.9-70.5,20h0Z"/>
  <path class="st0" d="M1563.8,274.2c10.4-1.2,25.8-.3,32.8,8.7,3.3,4.2,8.1,21,7.2,26.3-4.2,26.5-69.1,42.6-79.6,18-1.4-3.3-4.8-14.4-5.1-17.9-2.1-20.6,27.8-33.2,44.7-35.1h0ZM1592.8,298.7c6.8-11.4-3.8-18.8-14.3-19.8-16.7-1.7-34.9,3.2-47.5,14.5l61.8,5.3h0ZM1588,303.9l-59.5-6c-7.9,4.6-6.1,14.2,1.6,18.4,16.2,8.8,45.6.8,57.9-12.4ZM1527,320.9c4.6,17.2,28.2,14.9,41.8,11.3,13.2-3.5,35.2-15.6,29.2-32.3-2,1.3-2.7,4.1-4.5,6-14.9,16.5-46,23.1-66.5,15Z"/>
  <path class="st0" d="M127.8,620.2c11.7-.4,30.7,2.4,35.5,14.9,1.6,4.1,4,18.8,3.3,22.8-3,16.5-30.5,25.4-45,26-10.7.4-28.9-2.2-35-12.1-1.9-3.2-4.6-18.4-4.6-22.5-.3-19.3,30.5-28.7,45.9-29.2h0ZM146,626.9c-15.5-4.9-46.9-.2-56.4,14.1-4.3,6.5-3.6,17.4,5.5,16.5l51-30.6h0ZM99,661.9c16.2,5,48.9.4,58.5-15,4.1-6.6,1.8-15.7-6.5-16.5l-52,31.6h0ZM89,661.9c-1,5.2,3.6,10.3,7.7,12.8,14.6,8.5,44,4,57.2-6.3,5-4,12-12.8,6.1-18.4-.3,2.3-2.4,4.1-4,5.5-16.4,14.3-48.2,17.2-67,6.5h0Z"/>
  <path class="st0" d="M1027.8,620.2c11.4-.5,31,2.5,35.5,14.9,1.4,3.8,3.9,19.3,3.3,22.9-2.6,14-22.9,22.5-35.4,24.7-15.3,2.7-42.3,1.9-46.8-16.7-.9-3.6-2.5-13-2.5-16.5-.3-19.4,30.5-28.6,45.9-29.2h0ZM1046,626.9c-15.5-4.9-46.9-.2-56.4,14.1-4.3,6.5-3.6,17.4,5.5,16.5l51-30.6h0ZM999,661.9c16.2,5.2,50.6,0,59.2-16.3,3.5-6.8.2-14.5-7.2-15.3l-52,31.6h0ZM989,661.9c-.6,11.2,12.4,15.9,21.6,16.9,13.6,1.4,32.4-1.8,43.3-10.5,5-4,12-12.8,6.1-18.4-9.9,15.9-37.2,20.5-54.4,17.9-6.1-.9-11.3-2.8-16.6-5.9h0Z"/>
  <path class="st0" d="M622.8,191.2c56.4-7.6,61.4,71.8,11.6,76.6-51,5-56.9-70.5-11.6-76.6h0ZM662,242.9c13.5-39.2-35.3-66.3-60-32.5l60,32.5ZM599,214.9c-12.3,29.8,18.4,59.5,47.7,44.2,2.8-1.5,12.2-8.6,11.3-11.6l-58.9-32.6Z"/>
  <path class="st0" d="M114.8,530.2c56.8-6.5,59,85.3-3,76.5-40.5-5.8-41.1-71.4,3-76.5ZM136.9,539c-28.4-14.7-60.4,11.7-48.8,42.3,1.3,3.5,7.4,15.3,11.3,11.6l37.5-53.9h0ZM143.7,544.2c-.5-.5-2-1.5-2.7-.9-11,17-25.3,32.9-36.2,49.8-.9,1.5-3.4,3.8-1.8,5.2,8.9,7.5,27.3,4.5,36.3-1.6,16.7-11.4,19.6-38.7,4.4-52.5h0Z"/>
  <path class="st0" d="M1522.8,191.2c55.8-8,61.8,71.7,11.6,76.6-50.6,4.9-57.2-70.1-11.6-76.6ZM1562,242.9c13.8-39.1-35.4-66.2-60-32.5l60,32.5ZM1499,214.9c-12.4,29.9,18.5,59.5,47.7,44.2,2.8-1.5,12.2-8.6,11.3-11.6l-58.9-32.6h0Z"/>
  <path class="st0" d="M1014.8,530.2c34.5-4.3,56.9,35.9,35.1,63.1-15.3,19-45.2,18.6-60.3-.3-18.7-23.4-4.3-59.1,25.3-62.8h0ZM1036.9,539c-29.8-15.9-63.2,15.2-47.3,45.8,1.4,2.8,6.9,11.7,9.9,8.1l37.5-53.9h0ZM1043.7,544.2c-.5-.5-2-1.5-2.7-.9-11,17-25.3,32.9-36.2,49.8-1,1.5-3.4,3.8-1.8,5.2,9,7.6,27.2,4.5,36.3-1.6,16.7-11.4,19.6-38.7,4.4-52.5h0Z"/>
  <path class="st0" d="M1458.8,252.1c1.7-.2,2.7-.2,4.4,0,6.4.7,29.7,13.8,36.1,18,25.5,16.6,7.3,50.9-18.8,41.9-6.7-2.3-34-17.9-37.9-23.1-10.6-14.4-1.5-34.8,16.2-36.7h0ZM1480.9,265c-10.7-5.9-24.1-13.8-33.9-1.6-12,15,2.6,30.6,17.9,33.4.9-4.9,17.7-29.6,16-31.9ZM1485.7,269l-17.6,30.4c9.7,7.4,23.7,14.5,34,4,13.7-14-1.4-31.1-16.3-34.4h0Z"/>
  <path class="st0" d="M558.8,252.1c1.7-.2,2.7-.2,4.4,0,6.4.7,29.7,13.8,36.1,18,25.5,16.7,7.3,50.9-18.8,41.9-6-2.1-26.3-13.4-31.8-17.2-18.1-12.7-11.6-40.3,10.1-42.6h0ZM580.9,265c-5.5-1.8-10.9-6.9-16.7-7.8-15.2-2.5-25.8,12.5-19.4,26.4,3.5,7.7,12.6,9.4,18.7,14.3,2.3-4.1,18.8-31,17.4-32.9ZM585.7,269l-17.6,30.4c9.7,7.4,23.7,14.5,34,4,13.6-14-1.4-31.2-16.3-34.4h0Z"/>
  <path class="st0" d="M199.8,558.2c17.6-1.9,30,16.2,23.2,32.3-2.3,5.4-21.6,31.8-26.1,34.9-18.3,12.8-41.9-4.7-35.4-25.5,2-6.5,24-36.3,29.8-39.2,1.9-1,6.4-2.3,8.5-2.6h0ZM198.7,563.2c-9.2,1.5-14.4,10.8-18.7,18.1l28.4,21.6c.9,0,10.2-13.5,10.7-15.2,4.5-13.7-6.4-26.8-20.5-24.5h0ZM206,605.9l-29.4-19.9c-9.4,9-17.5,23.7-5.7,34.4,13.9,12.6,29.2-1.4,35-14.5h0Z"/>
  <path class="st0" d="M1099.8,558.2c17.6-1.9,30,16.2,23.2,32.3-2.2,5.3-21.7,31.8-26.1,34.9-18.3,12.9-41.8-4.8-35.4-25.5,1.6-5.2,19.8-30.5,24.1-34.9,3.5-3.5,9.2-6.3,14.2-6.9h0ZM1098.7,563.2c-9.2,1.5-14.3,10.8-18.7,18.1l28.4,21.6c.9,0,10.2-13.5,10.7-15.2,4.5-13.7-6.4-26.8-20.5-24.5h0ZM1076.6,586c-10.6,9.1-17.9,28-2.7,36.4,15.4,8.5,24.9-4.2,32.1-16l-29.4-20.4Z"/>
  <path class="st0" d="M1638.8.2c7.5-1,15.5,2.3,19.7,8.8,2.9,4.5,17.1,41.4,18.1,46.9,4.2,23.2-26.3,34.3-37.7,11.7-3.8-7.5-14.9-35-16.4-42.6-2.2-11.8,4-23.1,16.3-24.8h0ZM1652.7,9.3c-9.5-10-26.3-2.4-26.3,11l17.8,48c5.6,8.6,19.3,9.1,25.3.6,6.2-8.8,0-18.1-2.9-26.9l-1.1-.9c-3.3-1.1-17.5,7.1-22.1,7.7-5.5.8-5.4-2.2-.6-4.7,6.3-3.3,14.7-5.6,21.4-8.1-3.8-7.2-5.9-20.9-11.3-26.6h0Z"/>
  <path class="st0" d="M1310.8,355.2c14.4-1.8,23.2,9.4,22.2,23.2-.5,7.3-7.1,41.2-9.8,47.2-8.8,19.3-38.6,11.9-38.2-9.1.1-6,7.7-43.5,10-49.1,2.6-6.4,8.9-11.4,15.8-12.2ZM1322,395.9c-1.4,2.2-21.1-3.5-24.8-3.8-1.2-.1-1.9-.5-2.7.8-.7,1-4.6,22.3-4.6,24.5,0,16.6,24.3,20.8,29.8,3.7,2.5-7.9,8.9-38.3,9-46,.2-12.5-15.9-20.4-25.4-11.9-5.4,4.8-6.9,16.9-6.9,23.7,1.3,1.8,20.2,3.2,23.9,5.1,1.6.8,2.6,2.5,1.7,3.8h0Z"/>
  <path class="st0" d="M738.8.2c7.5-1,15.5,2.3,19.7,8.8,2.9,4.4,17.1,41.5,18.1,46.9,4,21.9-23.7,33.1-36,15-3.2-4.7-17-40-18.1-45.9-2.2-11.8,4-23.1,16.3-24.8h0ZM752.7,9.2c-9.9-9.9-25.8-2.6-26.3,11,5.8,14.1,10.1,34.4,17.6,47.2,5.5,9.5,19.2,10.3,25.5,1.4s-.3-17.9-2.9-26.9l-1.2-.9c-3.4-1.1-18.4,7.6-22.9,7.9-5.1.3-3.8-2.8.2-4.9,6.3-3.3,14.7-5.4,21.4-8.1-3.7-6.8-6.1-21.4-11.3-26.6h0Z"/>
  <path class="st0" d="M858.8,42.1c21.1-2.1,30.6,28.1,9.2,38.3-7.7,3.6-35.5,15-42.7,16.3-16.4,2.8-29.4-10.6-23.5-26.5,3.5-9.4,9.6-10.6,17.9-14.1s31.5-13.3,39-14h0ZM847,83.9c.9-1-9.9-22-8.9-25.4.2-.8,1.4-1.9,2.4-1.6,3.3.7,8.5,22.2,10.5,23.6,1.9,1.3,13-3.4,15.4-4.7,16.9-9.1,7.9-32-9.7-28.6-6.3,1.2-37.4,13.3-43.4,16.6-15.8,8.5-7.5,33.1,11.9,27.9,7.2-1.9,14.3-6.4,21.8-7.7h0Z"/>
  <path class="st0" d="M752.7,95.2c2.2-.4,4.6-.4,6.8-.2,5.1.5,46,18.5,50,22,14.9,13,3.3,38-16.8,34.8-4.5-.7-44.4-18.8-48.2-21.8-12.8-10.1-7.8-32,8.2-34.8h0ZM776,139.9c5.6.9,11.5,5.9,16.7,6.8,17.8,2.9,26.1-18.8,10.3-28.3-8.2-4.9-30.8-14.9-40.1-17.9-18.8-6.3-29.5,17.6-12.7,27.7,2.2,1.3,20,9,21.1,8.7l10.8-22.7,3.8-.2c2,1.9-9.2,22.1-10,26h0Z"/>
  <path class="st0" d="M391.4,431.6c-3.3-3.1-6.5-10.5-6.4-15.1.1-6,7.7-43.5,10-49.1,7.8-19.3,36.7-14.7,38.1,6,.4,6.1-6.8,44.6-9.2,50.8-5.1,13.1-22.1,17-32.5,7.4h0ZM422,395.9c-1.4,2.2-21.1-3.5-24.8-3.8-1.2-.1-1.9-.5-2.7.8-.7,1-4.6,22.3-4.6,24.5.4,17,24.4,20.6,29.8,3.7,2.5-7.7,8.9-38.5,9-46,.3-16.8-24.8-22.3-30.3-3.3-1.2,4.1-2.3,11-2,15.1,1.3,1.8,20.2,3.2,23.9,5.1,1.6.8,2.5,2.5,1.7,3.8h0Z"/>
  <path class="st0" d="M1357.3,400.6c-8.6-9.2-6.5-22.3,2.7-30.1,5-4.1,37.4-26.2,41.9-27.1,21.3-4.5,34.2,20.4,18.4,34.4-4.2,3.7-38.4,26.7-42.3,27.7-6.7,1.7-15.8.3-20.7-4.9h0ZM1402.7,348.1c-2.4.5-16.7,10.2-16.7,11.3,2.6,3.2,14.7,19.1,14,22-.4,1.8-2,1.7-3.5.6-4.5-3.2-9-15.4-13-19-1.1-1-1-1-2.5-.6-2.9.8-20.8,13.9-22.4,16.7-7.1,12.7,5.4,27.1,19.4,21.4,3.8-1.5,38.9-25.4,41-28,9.7-11.8-.7-27.5-16.3-24.3h0Z"/>
  <path class="st0" d="M1652.7,95.2c4-.7,7-.3,10.8.7,5.7,1.5,42.3,17.8,45.9,21,14.9,13.3,3.2,38-16.8,34.8-4.5-.7-44.4-18.8-48.2-21.8-12.8-10.1-7.7-32,8.2-34.8h0ZM1676,139.9c5.6.9,11.4,5.9,16.7,6.8,17.8,3,26.1-18.9,10.3-28.3-8.2-4.9-30.8-14.9-40.1-17.9-18.5-6.2-29.7,17.5-12.7,27.7,2.2,1.3,19.9,9,21.1,8.7l10.8-22.7,3.8-.2c2.2,2.1-10.8,24.8-10,26h0Z"/>
  <path class="st0" d="M502.7,343.1c19.4-3.4,32.4,18.4,19.7,32.7-2.8,3.2-40,28.2-43.7,29.3-19.1,5.7-34.2-14.2-23.1-30.2,3.5-5.1,25.9-19.1,32.5-23.5,4.1-2.6,10.1-7.6,14.6-8.3ZM502.7,348.1c-4.7,1-10.9,7.4-15.3,9.8l-.5,1.5c1.4,4.4,13.9,18.5,13,22-.4,1.8-2,1.7-3.5.6-4.5-3.2-9-15.4-13-19-1.1-1-1-1-2.5-.6-2.9.8-20.8,13.9-22.4,16.7-7.2,12.8,5.6,27.1,19.4,21.4,3.8-1.6,38.8-25.3,41-28,9.7-11.8-.7-27.5-16.3-24.3h0Z"/>
  <path class="st0" d="M1344.7,429.1c6.9-1.2,13.5-.2,18.8,4.7,3.5,3.2,26.4,37,28.4,41.6,8.7,20.7-16.7,37.5-31.9,22.9-4.2-4-24.7-34.6-27.5-40.5-5.3-11.1-.5-26.6,12.3-28.8h0ZM1350,470.9c-.1,0-.7-2.5-.5-3,1.2-3,21.3-14.1,21.5-15.5-6-7.4-10.7-20.6-22.3-19.5-11.6,1.1-16.6,12.7-12,22.9,3.2,7,19.2,30,24.6,36.4,11.7,14.1,31.5,3.8,27.3-12.4-.7-2.5-13.7-22.6-15.1-23-3.8,1.4-21.1,15.8-23.5,14h0Z"/>
  <path class="st0" d="M1758.8,42.1c21.6-1.7,30.3,28.2,9.2,38.3-7.3,3.5-35.9,15.1-42.7,16.3-24.9,4.3-35.5-26.9-11.2-38.2,7.3-3.4,38.3-15.8,44.8-16.3h0ZM1747,83.9c.9-.9-8.4-19.9-8.8-23.7-.1-1.3,0-3,1.3-3.2,4.1-.9,8.9,21,12.1,23.9,1.7.6,13.9-4.4,16.1-5.7,15.4-9.2,6-31.3-11-28-5.9,1.1-37.8,13.5-43.4,16.6-15.8,8.5-7.5,33.1,11.9,27.9,7.2-1.9,14.3-6.4,21.8-7.7h0Z"/>
  <path class="st0" d="M444.7,429.1c7-1.2,13.5-.2,18.8,4.7,3.8,3.5,25.2,35.2,27.6,40.4,9.8,21.2-14.5,38.8-30.7,24.7-3.6-3.2-25.6-35.8-28-41-5.3-11.1-.5-26.6,12.3-28.8ZM450,470.9c-.1,0-.7-2.5-.5-3,1.2-2.9,21.5-14.1,21.5-15.5-6.2-7.3-10.5-20.6-22.4-19.5s-16.6,12.7-12,22.9c3.2,7,19.2,30,24.6,36.4,12.3,14.8,32.8,2.7,26.9-13.9-.8-2.1-13.3-21.1-14.6-21.5-3.8,1.4-21.1,15.8-23.5,14h0Z"/>
  <path class="st0" d="M503.8,415.1c6.5,6.5-8.3,14-8.9,4.2-.3-5.6,5.8-7.3,8.9-4.2Z"/>
  <path class="st0" d="M1403.8,415.1c6.5,6.5-8.3,14-8.8,4.2-.3-5.6,5.8-7.3,8.8-4.2Z"/>
  <path class="st0" d="M1713.8,32.2c6.5,6.5-8.3,14-8.8,4.2-.3-5.6,5.8-7.3,8.8-4.2Z"/>
  <path class="st0" d="M415.8,457.7c-4.9,4.9-12.8-3.5-7.4-7.9s11.5,3.8,7.4,7.9Z"/>
  <path class="st0" d="M1695.7,45c6.4-1.6,9.3,10,1.6,10.6-6,.5-7.4-9.2-1.6-10.6Z"/>
  <path class="st0" d="M813.8,32.2c6.1,6.1-8.3,14.1-8.8,4.2-.3-5.7,5.8-7.3,8.8-4.2Z"/>
  <path class="st0" d="M1634.8,91.7c-4.1,4.1-11.8-.9-8.3-6.8s13.4,1.6,8.3,6.8Z"/>
  <path class="st0" d="M728.7,83.1c6.9-2.1,10.2,7.7,3.6,9.7-7.4,2.2-8.3-8.2-3.6-9.7Z"/>
  <path class="st0" d="M795.7,45c6.7-1.7,9.4,10.8.8,10.5-5.7-.2-5.9-9.2-.8-10.5Z"/>
  <path class="st0" d="M1315.8,450.2c5.2,5.1-4.8,12.5-8.3,6.8s4.1-10.9,8.3-6.8Z"/>
  <path class="st0" d="M1741.7,114.1c6.2-.6,7.6,10,.7,10.6-6.2.6-7.6-10-.7-10.6Z"/>
  <path class="st0" d="M1376.2,424.7c-4.4-4.4,4.1-12.9,8.7-6.1,3.4,5.1-4.7,10.1-8.7,6.1Z"/>
  <path class="st0" d="M476.2,424.7c-4.5-4.4,4.1-12.9,8.7-6.1,3.4,5.1-4.6,10.1-8.7,6.1Z"/>
  <path class="st0" d="M453.8,341.2c5.1,5.1-4.9,12.5-8.3,6.8s4.1-10.9,8.3-6.8Z"/>
  <path class="st0" d="M1353.8,341.2c5.2,5.1-4.8,12.5-8.3,6.8s4.1-10.9,8.3-6.8Z"/>
  <path class="st0" d="M841.7,114.1c5.7-.5,7.7,9.9.7,10.6-6.2.6-7.6-9.9-.7-10.6Z"/>
  <path class="st0" d="M62.7,181.6c-5.6,7-19-2.1-11.7-10.2,6.7-7.4,17.7,2.9,11.7,10.2Z"/>
  <path class="st0" d="M45.7,182.2c7,5.6-2,19-10.2,11.7-7.4-6.6,2.9-17.7,10.2-11.7Z"/>
  <path class="st0" d="M29.7,217.1c9.9-1.4,11.6,16,.7,15.7-9.3-.2-10.5-14.3-.7-15.7ZM29.5,221.9c-2.6.8-2,7.2,2,6,2.6-.8,2-7.2-2-6Z"/>
  <path class="st0" d="M23.7,192.1c10-1.3,11.7,15.4.8,15.4s-10.1-14.1-.8-15.4ZM23.5,196.9c-2.6.8-2,7.2,2,6,2.6-.8,2-7.2-2-6Z"/>
  <path class="st0" d="M43.7,206.1c10.6-3.2,14.1,11.6,5.3,14.4-10.5,3.3-13.2-12-5.3-14.4ZM48.8,211.1c-3.8-3.8-7.2,3.6-3.2,4.8,2.5.7,5.6-2.5,3.2-4.8Z"/>
  <path class="st0" d="M68.7,206.6c-5.9,7.3-19-2.1-11.7-10.2,6.8-7.6,17.3,3.3,11.7,10.2ZM65,198.9c-2.4-1.7-6.7,1.9-4.9,4.9,2.4,3.8,7.8-2.8,4.9-4.9Z"/>
  <path class="st0" d="M21.2,163.2c7-6.5,18.4,4.4,10.3,11.8-7.5,6.8-17-5.5-10.3-11.8ZM25.5,165.9c-2.5.7-2.4,7,1.8,5.9,4.7-1.3,1.7-6.8-1.8-5.9Z"/>
  <path class="st0" d="M73.2,195.6c-6.4-5.9,2.2-18.3,10.3-11.8,8.1,6.6-2.9,18.6-10.3,11.8ZM77.5,186.9c-2.5.7-2.3,7,1.8,5.9,4.7-1.3,1.7-6.8-1.8-5.9Z"/>
  <path class="st0" d="M49,250.9c2.7-2.8,12.8,13.5,15,15.5,7.5,6.9,17.3,9.1,27,6,3.6-1.2,11.2-7.9,10.9-1.1-11.5,11.1-32.1,8.4-42.9-2.9-1.9-2-11.8-15.6-10-17.5h0Z"/>
  <path class="st0" d="M949,250.9c7.8,1.8,10.1,11.8,16.5,17,7.3,5.9,16.6,7.4,25.4,4.5,3.5-1.2,11.2-7.9,10.9-1.1-11.7,11.1-31.1,8.5-42.2-2.5-2.1-2.1-12.7-15.8-10.6-17.9h0Z"/>
  <path class="st0" d="M937.7,181.1c11.2-3.4,14.2,11.6,5.3,14.4-10.2,3.2-13.7-11.8-5.3-14.4Z"/>
  <path class="st0" d="M929.7,217.1c9.7-1.4,11.8,15.7.8,15.7s-10.3-14.3-.8-15.7ZM929.5,221.9c-2.7.8-2,7.2,2,6,2.7-.8,2-7.2-2-6Z"/>
  <path class="st0" d="M923.7,192.1c10-1.3,11.8,15.2.6,15.6-8.8.3-10.5-14.2-.6-15.6ZM923.5,196.9c-2.7.8-2,7.2,2,6,2.7-.8,2-7.2-2-6Z"/>
  <path class="st0" d="M954.7,169.1c12.4-2.6,12.8,18.7-.8,14.4-7-2.2-6.3-12.9.8-14.4ZM959,173.9c-3.1-2.1-7.7,3.4-3,5.5,3,1.4,4.6-4.4,3-5.5Z"/>
  <path class="st0" d="M960.7,194.1c10.2-2.1,12.6,12.2,4.6,14.6-10.9,3.3-14-12.7-4.6-14.6ZM965,198.9c-3.8-2.6-8.2,5.5-2.4,5.5,3.5,0,3.5-4.8,2.4-5.5Z"/>
  <path class="st0" d="M943.7,206.1c10.6-3.2,14.1,11.6,5.3,14.4-10.5,3.3-13.2-12-5.3-14.4ZM948.8,211.1c-3.8-3.8-7.2,3.6-3.2,4.8,2.5.7,5.6-2.5,3.2-4.8Z"/>
  <path class="st0" d="M926.5,161.4c10.4-.4,9.4,15,.9,15.5-10.5.6-10.9-15.1-.9-15.5ZM925.5,165.9c-2.5.7-2.3,7,1.8,5.9,4.7-1.3,1.7-6.8-1.8-5.9Z"/>
  <path class="st0" d="M973.2,195.6c-6.4-5.9,2.2-18.3,10.3-11.8,8.4,6.8-3,18.5-10.3,11.8ZM977.5,186.9c-2.5.7-2.3,7,1.8,5.9,4.7-1.3,1.7-6.8-1.8-5.9Z"/>
  <path class="st0" d="M256.3,239.7c-.5-.5-.8-1.5-1-2.3l2.2-2.2c11.1,7,26.4,6,35.5-3.8,2.5-2.6,9.3-15.8,10.2-16.3,1.5-.9,3.9-.2,4.8,1.3-9.5,17.4-18.4,30-40.5,27.5-2.4-.3-9.8-2.8-11.2-4.3h0Z"/>
  <path class="st0" d="M320.7,180.1c14.1-4.2,13.1,19.9-.5,14-6.1-2.6-5-12.4.5-14Z"/>
  <path class="st0" d="M316.7,146.2c6.4,7.9-5.4,18.1-11.7,10.2-7.1-8.7,6.3-17,11.7-10.2ZM309.6,149c-3.9,1.2-.5,7.2,3.4,4.4,2.6-1.8.3-5.6-3.4-4.4Z"/>
  <path class="st0" d="M295.7,171.7c-6.6,7-18.6-2.7-11.8-10.3,7.6-8.4,17.8,3.9,11.8,10.3ZM289.5,163.1c-3.1.2-3.8,7.4,1.9,5.7,3.5-1.1.8-5.9-1.9-5.7Z"/>
  <path class="st0" d="M293.6,133.2c9.7-.5,10.8,14.9.7,15.4-9.7.5-10.8-14.9-.7-15.4ZM295.9,138.1c-4.4-2.8-6.4,5.1-2.2,5.8,2.8.5,4.1-4.6,2.2-5.8Z"/>
  <path class="st0" d="M320.7,124.1c10.4-3.1,14.1,11.6,5.3,14.4-10.5,3.3-13.2-12-5.3-14.4ZM325.8,129.1c-2.2-2.2-6.4.4-5.3,2.8,2,4.3,8.6.4,5.3-2.8Z"/>
  <path class="st0" d="M271.7,148.1c8.7-1.6,12.2,12.4,4.6,14.6-12.7,3.8-14.1-12.9-4.6-14.6ZM274.9,153c-4.1-2.9-7.1,5.1-2.3,5.8,2.8.4,4-4.6,2.3-5.8Z"/>
  <path class="st0" d="M322.3,167.6c-7.2-7.2,4.5-18.6,11.2-10.7,6.5,7.7-4.7,17.2-11.2,10.7ZM326.5,158.9c-2.5.7-2.4,7,1.8,5.9,4.7-1.3,1.7-6.8-1.8-5.9Z"/>
  <path class="st0" d="M301.2,171.2c7.7-7.1,18.1,5.3,10.3,11.8-7,5.8-17.1-5.5-10.3-11.8ZM305.5,173.9c-2.5.7-2.4,7,1.8,5.9,4.7-1.3,1.7-6.8-1.8-5.9Z"/>
  <path class="st0" d="M1156.3,239.7c-.5-.5-.8-1.5-1-2.3l2.2-2.2c11.4,7.1,26,6,35.5-3.8,2.7-2.8,9.3-15.8,10.2-16.3,1.5-.9,3.9-.2,4.8,1.3-9.3,17.5-18.6,30-40.5,27.5-2.3-.3-9.8-2.8-11.2-4.3h0Z"/>
  <path class="st0" d="M1221.7,180.1c13.4-3,11.6,19.7-1.5,14-6.3-2.7-5.3-12.5,1.5-14Z"/>
  <path class="st0" d="M1216.7,146.2c6.1,7.5-4.6,18.2-11.7,10.2s6.1-17.2,11.7-10.2ZM1212.9,153.8c.7-.5,1.7-4.2-.5-4.8-6.9-2.1-4.5,8,.5,4.8Z"/>
  <path class="st0" d="M1195.7,171.7c-6.6,7-18.6-2.7-11.8-10.3,7.6-8.4,17.8,3.9,11.8,10.3ZM1191.9,168.8c1.7-1.3.6-6.3-2.3-5.8-4.9.8-1.8,8.8,2.3,5.8Z"/>
  <path class="st0" d="M1220.7,124.1c10.4-3.1,14.1,11.6,5.3,14.4-10.3,3.2-13.7-11.8-5.3-14.4ZM1225.8,129.1c-2.2-2.2-6.4.4-5.3,2.8,2,4.3,8.6.4,5.3-2.8Z"/>
  <path class="st0" d="M1193.7,133.2c9.7-.5,10.8,14.9.7,15.4s-10.8-14.9-.7-15.4ZM1192.1,138c-1.7,1.3-.6,6.3,2.3,5.8,4.9-.8,1.8-8.8-2.3-5.8Z"/>
  <path class="st0" d="M1171.7,148.1c8.4-1.5,13,12.5,3.6,14.6-12.3,2.8-12.4-13-3.6-14.6ZM1174.9,153c-4.1-2.9-7.2,5.1-2.3,5.8,2.8.4,4-4.6,2.3-5.8Z"/>
  <path class="st0" d="M1227.7,154.2c9.3-.3,10.5,15.8-.2,15.6-8.9-.2-9.8-15.3.2-15.6ZM1226.5,158.9c-2.5.7-2.3,7,1.8,5.9,4.7-1.3,1.7-6.8-1.8-5.9Z"/>
  <path class="st0" d="M1201.3,171.2c4.7-4.7,13.1-1.1,12.8,6.2-.6,14-22.7,3.6-12.8-6.2ZM1205.5,173.9c-2.5.7-2.3,7,1.8,5.9,4.7-1.3,1.7-6.8-1.8-5.9Z"/>
  <path class="st0" d="M1021.8,425.1c.2.1,1.3,2.8,2.6,3.9,8.7,7.2,18.1,10.3,29.2,6.1,4.3-1.6,16.3-11.8,18.8-11.2l1.6,2.5c0,1.5-.9,1.6-1.7,2.4-1.5,1.5-11.6,8.3-13.7,9.3-15.4,7.5-32.7,2.9-41.7-11.7,1-1.5,3.3-2.2,4.8-1.3h0Z"/>
  <path class="st0" d="M1096.3,363.2c5.7-7.1,19.3,1.7,11.7,10.2-6.8,7.6-17.3-3.2-11.7-10.2Z"/>
  <path class="st0" d="M1090.7,344.2c9.3-.5,11.4,13.9,1.5,15.2-10.6,1.4-11.5-14.6-1.5-15.2Z"/>
  <path class="st0" d="M1071.7,362.6c-6,7.1-18.4-2.1-11.7-10.2s18.4,2.5,11.7,10.2ZM1064.6,355c-3.9,1.2-.5,7.2,3.4,4.4,2.6-1.8.3-5.6-3.4-4.4Z"/>
  <path class="st0" d="M1119.7,379.2c6.3,7.9-5.3,18.1-11.7,10.2-6.8-8.3,6.1-17.3,11.7-10.2ZM1115.9,382c-5-3.1-7.4,7-.5,4.8,2.2-.7,1.2-4.4.5-4.8Z"/>
  <path class="st0" d="M1097.7,399.1c11.1-2.4,13.4,11.8,5.3,14.4-10.9,3.5-13.7-12.5-5.3-14.4ZM1098.1,408.8c3.5,2.2,7.3-3.5,2.9-5.5-2.8-1.2-5.2,4-2.9,5.5Z"/>
  <path class="st0" d="M1075.7,366.1c12.3-2.4,12.2,19-1.8,14.4-6.2-2-5.2-13,1.8-14.4ZM1079.9,375.8c2.2-3.5-3.5-7.4-5.4-2.9-1.2,2.8,4,5.2,5.4,2.9Z"/>
  <path class="st0" d="M1083.2,395.6c-7.3-6.7,4.4-18.6,11.2-10.7,6.2,7.1-4.2,17.2-11.2,10.7ZM1087.5,386.9c-2.5.7-2.3,7,1.8,5.9,4.7-1.3,1.7-6.8-1.8-5.9Z"/>
  <path class="st0" d="M1116.3,349.2c6.9-6.9,17.5,3.3,11.2,10.7-6.1,7.1-18.5-3.4-11.2-10.7ZM1120.6,352c-3.4,1-.7,6.2,1.8,5.8,3.4-.5,3.8-7.6-1.8-5.8Z"/>
  <path class="st0" d="M120.3,431.6c-1.3-1.5-2-3.6-3.3-5.2l4.3-1.5c8.4,12.4,23.2,15.5,36.3,8.2,3.3-1.8,10.2-8.3,13-9,3.2-.8,4.4,2,1.7,4.7-1.4,1.4-11,7.9-13.1,9-12.6,6.5-29.4,4.7-39-6.2h0Z"/>
  <path class="st0" d="M163.7,350.1c11.2-2.4,11.9,12.2,5.3,14.4-11.5,3.8-14.6-12.4-5.3-14.4ZM164.6,355c-3.9,1.2-.5,7.2,3.4,4.4,2.6-1.8.3-5.6-3.4-4.4Z"/>
  <path class="st0" d="M219.7,379.2c6.4,7.9-5.3,18.1-11.7,10.2-6.8-8.3,6.1-17.3,11.7-10.2ZM215.9,382c-5-3.1-7.4,7-.5,4.8,2.2-.7,1.2-4.4.5-4.8Z"/>
  <path class="st0" d="M199.7,361.1c10.6-3.2,14.1,11.6,5.3,14.4-10.2,3.2-13.7-11.9-5.3-14.4ZM204.9,366c-.5-.7-4.2-1.7-4.8.5-2.1,6.9,8,4.5,4.8-.5Z"/>
  <path class="st0" d="M197.7,399.1c14-3.1,12.5,18.2.2,14.4-6.8-2.2-6.8-12.9-.2-14.4ZM198.6,404c-3.9,1.2-.5,7.2,3.4,4.4,2.6-1.8.3-5.6-3.4-4.4Z"/>
  <path class="st0" d="M175.7,366.1c12.3-2.4,12.2,19-1.8,14.4-6.2-2-5.2-13,1.8-14.4ZM179.9,375.8c2.2-3.5-3.5-7.4-5.4-2.9-1.2,2.8,4,5.2,5.4,2.9Z"/>
  <path class="st0" d="M190.6,344.2c9.4-.5,11,13.9,1.5,15.2-10.6,1.4-11.5-14.6-1.5-15.2ZM189,348.9l-.8,3.4,3.1,2.6c5.6-2.2-.2-7.6-2.4-5.9h0Z"/>
  <path class="st0" d="M227.8,349.2c6.7,7.4-5.2,18.3-11.8,10.3s6-16.7,11.8-10.3ZM220.6,352c-3.5,1.1-.8,5.9,1.9,5.7,3.1-.2,3.8-7.4-1.9-5.7Z"/>
  <path class="st0" d="M183.2,395.7c-7.1-6.5,4.3-18.9,11.2-10.7,6.3,7.5-4.5,16.8-11.2,10.7ZM187.5,386.9c-2.5.7-2.4,7,1.8,5.9,4.7-1.3,1.7-6.8-1.8-5.9Z"/>
  <path class="st0" d="M885.1,533.8c-.6-4.9,2.6-4.5,5.8-2.3,4.2,2.8,8.8,13,9.1,18,.2,3.5-2.1,15.3-5.6,16.3-6.5,2,0-8.2.4-10.6,1.4-8.4-1.8-17.5-9.6-21.4h0Z"/>
  <path class="st0" d="M1406.7,80.2c20.2-3.5,19.4,16.5,3,23-24.5,9.7-23.8-19.4-3-23ZM1412.5,84.4c-6.6-.3-19.9,5.8-15.6,14.1,4.1,5.2,20.6-2.6,20.2-10.1-.2-3.1-1.6-3.8-4.6-4Z"/>
  <path class="st0" d="M1425,144.9c3.4,3.2-18.7,21.2-22,22.4-1.3.5-2.5.8-3.9.5-3.1-3.1,8.9-9.6,11-11.5,2.3-2.1,12.2-14.1,15-11.5Z"/>
  <path class="st0" d="M1396,167.9c2.9,4.2-11.7,6.8-14.5,7-5.1.3-23.5-2.1-15.9-8.9,5.8,4.2,11.7,4.7,18.8,3.8,4.3-.5,7.6-3.6,11.6-1.9h0Z"/>
  <path class="st0" d="M519.7,82.2c10.3,9.5-11.7,28.3-24.6,21.1-15.6-8.7,12.6-32.1,24.6-21.1ZM496.2,98.7c6.3,5.5,25.4-5.5,20.3-12.8-7.9-3.9-23.6,3.1-20.3,12.8Z"/>
  <path class="st0" d="M525,144.9c2.4,2.4-8,11.7-10,13.5s-13.9,11.6-16,9.5c-.7-5.5,7.1-8,11-11.5,2.3-2,12.3-14.2,15-11.5Z"/>
  <path class="st0" d="M464.3,170.6c-1.8-2-.8-3.4,1.3-4.6,5.8,4.2,11.7,4.7,18.8,3.8,4.1-.5,8.8-4.4,11.6-1.4,1.2,4-10.8,6.2-13.5,6.5-4.8.4-14.8-.6-18.2-4.3h0Z"/>
  <path class="st0" d="M1450.1,268c5.3-3.5,2.8,7.1,2.9,8.4.5,4.7,7.8,6.7,3.5,10.6-5.6-1.2-9.1-8.1-8.5-13.4,0-.7,1.8-5.4,2.1-5.5h0Z"/>
  <path class="st0" d="M550,267.9c6.5-.4,2.5,4.6,3,8.4s4.3,5.3,4.8,7.3c1.7,6.4-7.3,2-9.2-4.8-1.3-4.6.2-6.6,1.3-10.8Z"/>
  <path class="st0" d="M212.8,588.7c-1.2,1.3-4.2,1.7-4.7-.3s2.6-5,2-8.9c-.5-3.2-4.5-4.9-4-8.6,8.3-1.2,11.3,13,6.8,17.7h0Z"/>
  <path class="st0" d="M1112.8,588.7c-1.2,1.3-4.2,1.7-4.7-.3s2.6-5,2-8.9c-.5-3.2-4.5-4.9-4-8.6,8.3-1.2,11.3,13,6.8,17.7h0Z"/>
</svg>